<?xml version="1.0" encoding="UTF-8" standalone="no"?><!DOCTYPE svg PUBLIC "-//W3C//DTD SVG 1.1//EN" "http://www.w3.org/Graphics/SVG/1.1/DTD/svg11.dtd"><svg width="100%" height="100%" viewBox="0 0 200 22" version="1.1" xmlns="http://www.w3.org/2000/svg" xmlns:xlink="http://www.w3.org/1999/xlink" xml:space="preserve" xmlns:serif="http://www.serif.com/" style="fill-rule:evenodd;clip-rule:evenodd;stroke-linejoin:round;stroke-miterlimit:2;"><path d="M14.29,1.847l0,3.019l-5.258,0l0,16.015l-3.801,0l0,-16.015l-5.231,0l0,-3.019l14.29,0Z" style="fill:#0d0d0d;fill-rule:nonzero;"/><path d="M25.29,5.729c1.725,0 3.1,0.566 4.125,1.699c1.024,1.132 1.537,2.723 1.537,4.772l0,8.681l-3.775,0l0,-8.25c0,-1.186 -0.305,-2.107 -0.917,-2.763c-0.611,-0.656 -1.446,-0.984 -2.507,-0.984c-1.078,0 -1.941,0.35 -2.588,1.051c-0.647,0.701 -0.971,1.708 -0.971,3.02l0,7.926l-3.801,0l0,-19.951l3.801,0l0,8.007c0.396,-1.006 1.047,-1.792 1.955,-2.359c0.908,-0.566 1.955,-0.849 3.141,-0.849Z" style="fill:#0d0d0d;fill-rule:nonzero;"/><path d="M48.342,12.847c0,0.377 -0.045,0.809 -0.135,1.294l-10.946,0c0.054,1.33 0.413,2.31 1.078,2.939c0.665,0.629 1.492,0.943 2.481,0.943c0.88,0 1.613,-0.215 2.197,-0.647c0.584,-0.431 0.957,-1.015 1.119,-1.752l4.017,0c-0.198,1.042 -0.62,1.977 -1.267,2.804c-0.647,0.827 -1.478,1.474 -2.494,1.941c-1.016,0.467 -2.143,0.701 -3.384,0.701c-1.456,0 -2.75,-0.31 -3.882,-0.93c-1.132,-0.62 -2.013,-1.505 -2.642,-2.656c-0.629,-1.15 -0.944,-2.507 -0.944,-4.071c0,-1.564 0.315,-2.925 0.944,-4.085c0.629,-1.159 1.51,-2.044 2.642,-2.655c1.132,-0.611 2.426,-0.917 3.882,-0.917c1.474,0 2.764,0.306 3.869,0.917c1.106,0.611 1.96,1.451 2.562,2.521c0.602,1.069 0.903,2.287 0.903,3.653Zm-3.829,-0.378c0.054,-1.222 -0.265,-2.148 -0.957,-2.777c-0.692,-0.629 -1.541,-0.943 -2.548,-0.943c-1.024,0 -1.887,0.314 -2.588,0.943c-0.701,0.629 -1.087,1.555 -1.159,2.777l7.252,0Z" style="fill:#0d0d0d;fill-rule:nonzero;"/><path d="M76.004,1.847l-4.664,19.034l-4.691,0l-3.559,-13.804l-3.586,13.804l-4.664,0l-4.665,-19.034l4.125,0l2.912,14.747l3.775,-14.747l4.179,0l3.801,14.747l2.912,-14.747l4.125,0Z" style="fill:#0d0d0d;fill-rule:nonzero;"/><path d="M85.495,5.756c1.456,0 2.763,0.306 3.923,0.917c1.159,0.611 2.071,1.496 2.736,2.655c0.665,1.16 0.998,2.521 0.998,4.085c0,1.564 -0.333,2.921 -0.998,4.071c-0.665,1.151 -1.577,2.036 -2.736,2.656c-1.16,0.62 -2.467,0.93 -3.923,0.93c-1.456,0 -2.764,-0.31 -3.923,-0.93c-1.159,-0.62 -2.072,-1.505 -2.737,-2.656c-0.665,-1.15 -0.997,-2.507 -0.997,-4.071c0,-1.564 0.332,-2.925 0.997,-4.085c0.665,-1.159 1.578,-2.044 2.737,-2.655c1.159,-0.611 2.467,-0.917 3.923,-0.917Zm0,3.289c-1.061,0 -1.959,0.373 -2.696,1.119c-0.737,0.746 -1.106,1.829 -1.106,3.249c0,1.42 0.369,2.503 1.106,3.249c0.737,0.746 1.635,1.119 2.696,1.119c1.06,0 1.959,-0.373 2.696,-1.119c0.737,-0.746 1.105,-1.829 1.105,-3.249c0,-1.42 -0.368,-2.503 -1.105,-3.249c-0.737,-0.746 -1.636,-1.119 -2.696,-1.119Z" style="fill:#0d0d0d;fill-rule:nonzero;"/><path d="M99.65,8.803c0.557,-0.953 1.294,-1.703 2.21,-2.252c0.917,-0.548 1.942,-0.822 3.074,-0.822l0,4.071l-1.105,0c-2.786,0 -4.179,1.294 -4.179,3.883l0,7.198l-3.802,0l0,-14.936l3.802,0l0,2.858Z" style="fill:#0d0d0d;fill-rule:nonzero;"/><path d="M115.772,20.881l-4.933,-6.524l0,6.524l-3.802,0l0,-19.951l3.802,0l0,11.216l4.906,-6.201l4.503,0l-6.282,7.441l6.444,7.495l-4.638,0Z" style="fill:#0d0d0d;fill-rule:nonzero;"/><path d="M126.045,13.817l0,7.064l-3.802,0l0,-19.034l6.929,0c2.247,0 3.941,0.539 5.083,1.617c1.141,1.079 1.712,2.544 1.712,4.395c0,1.815 -0.589,3.262 -1.766,4.341c-1.178,1.078 -2.854,1.617 -5.029,1.617l-3.127,0Zm2.723,-3.046c2.229,0 3.343,-0.971 3.343,-2.912c0,-0.953 -0.261,-1.681 -0.782,-2.184c-0.521,-0.503 -1.375,-0.755 -2.561,-0.755l-2.723,0l0,5.851l2.723,0Z" style="fill:#0d0d0d;fill-rule:nonzero;"/><rect x="138.447" y="0.93" width="3.802" height="19.951" style="fill:#0d0d0d;fill-rule:nonzero;"/><path d="M151.55,5.756c1.258,0 2.337,0.297 3.236,0.89c0.898,0.593 1.536,1.393 1.914,2.399l0,-3.1l3.775,0l0,14.936l-3.775,0l0,-3.127c-0.378,1.006 -1.016,1.811 -1.914,2.413c-0.899,0.602 -1.978,0.903 -3.236,0.903c-1.258,0 -2.39,-0.305 -3.397,-0.917c-1.006,-0.611 -1.793,-1.496 -2.359,-2.655c-0.566,-1.16 -0.849,-2.521 -0.849,-4.085c0,-1.564 0.283,-2.925 0.849,-4.085c0.566,-1.159 1.353,-2.044 2.359,-2.655c1.007,-0.611 2.139,-0.917 3.397,-0.917Zm1.187,3.316c-1.187,0 -2.139,0.387 -2.858,1.16c-0.719,0.772 -1.079,1.833 -1.079,3.181c0,1.348 0.36,2.404 1.079,3.168c0.719,0.764 1.671,1.146 2.858,1.146c1.15,0 2.098,-0.391 2.844,-1.173c0.746,-0.782 1.119,-1.829 1.119,-3.141c0,-1.33 -0.373,-2.386 -1.119,-3.168c-0.746,-0.782 -1.694,-1.173 -2.844,-1.173Z" style="fill:#0d0d0d;fill-rule:nonzero;"/><path d="M170.639,5.756c1.923,0 3.527,0.521 4.813,1.564c1.285,1.042 2.089,2.462 2.413,4.26l-4.018,0c-0.161,-0.791 -0.53,-1.416 -1.105,-1.874c-0.575,-0.458 -1.303,-0.688 -2.184,-0.688c-1.006,0 -1.847,0.373 -2.521,1.119c-0.674,0.746 -1.011,1.838 -1.011,3.276c0,1.438 0.337,2.53 1.011,3.276c0.674,0.746 1.515,1.119 2.521,1.119c0.881,0 1.609,-0.229 2.184,-0.688c0.575,-0.458 0.944,-1.083 1.105,-1.874l4.018,0c-0.324,1.798 -1.128,3.218 -2.413,4.26c-1.286,1.043 -2.89,1.564 -4.813,1.564c-1.456,0 -2.75,-0.31 -3.882,-0.93c-1.133,-0.62 -2.014,-1.505 -2.643,-2.656c-0.629,-1.15 -0.943,-2.507 -0.943,-4.071c0,-1.564 0.314,-2.925 0.943,-4.085c0.629,-1.159 1.51,-2.044 2.643,-2.655c1.132,-0.611 2.426,-0.917 3.882,-0.917Z" style="fill:#0d0d0d;fill-rule:nonzero;"/><path d="M194.608,12.847c0,0.377 -0.045,0.809 -0.135,1.294l-10.946,0c0.053,1.33 0.413,2.31 1.078,2.939c0.665,0.629 1.492,0.943 2.48,0.943c0.881,0 1.614,-0.215 2.198,-0.647c0.584,-0.431 0.957,-1.015 1.119,-1.752l4.017,0c-0.198,1.042 -0.62,1.977 -1.267,2.804c-0.647,0.827 -1.479,1.474 -2.494,1.941c-1.016,0.467 -2.144,0.701 -3.384,0.701c-1.456,0 -2.75,-0.31 -3.882,-0.93c-1.133,-0.62 -2.013,-1.505 -2.642,-2.656c-0.63,-1.15 -0.944,-2.507 -0.944,-4.071c0,-1.564 0.314,-2.925 0.944,-4.085c0.629,-1.159 1.509,-2.044 2.642,-2.655c1.132,-0.611 2.426,-0.917 3.882,-0.917c1.474,0 2.764,0.306 3.869,0.917c1.106,0.611 1.959,1.451 2.562,2.521c0.602,1.069 0.903,2.287 0.903,3.653Zm-3.829,-0.378c0.054,-1.222 -0.265,-2.148 -0.957,-2.777c-0.692,-0.629 -1.541,-0.943 -2.548,-0.943c-1.024,0 -1.887,0.314 -2.588,0.943c-0.701,0.629 -1.088,1.555 -1.159,2.777l7.252,0Z" style="fill:#0d0d0d;fill-rule:nonzero;"/><rect x="194.608" y="0.93" width="5.392" height="5.392" style="fill:#3b4fe4;"/></svg>