<svg width="143" height="80" viewBox="0 0 143 80" fill="none" xmlns="http://www.w3.org/2000/svg">
<path d="M42.984 36.568C43.272 36.568 43.368 36.672 43.368 36.952V43.288H46.624C46.904 43.288 47.008 43.392 47.008 43.672V44.232C47.008 44.512 46.904 44.616 46.624 44.616H42.336C42.056 44.616 41.944 44.512 41.944 44.232V36.952C41.944 36.672 42.056 36.568 42.336 36.568H42.984Z" fill="#9097AA"/>
<path d="M49.848 39.36C49.848 37.512 51.016 36.4 53.048 36.4C55.08 36.4 56.248 37.512 56.248 39.36V41.824C56.248 43.672 55.072 44.784 53.048 44.784C51.024 44.784 49.848 43.672 49.848 41.824V39.36ZM54.904 39.36C54.904 38.32 54.256 37.76 53.088 37.76C51.92 37.76 51.28 38.328 51.28 39.36V41.84C51.28 42.888 51.92 43.44 53.088 43.44C54.256 43.44 54.904 42.864 54.904 41.84V39.36Z" fill="#9097AA"/>
<path d="M65.776 40.208C66.088 40.208 66.16 40.312 66.16 40.592V42.112C66.1684 42.4701 66.0967 42.8255 65.95 43.1522C65.8032 43.4788 65.5852 43.7686 65.312 44C64.6333 44.5404 63.7777 44.8086 62.912 44.752C60.84 44.752 59.712 43.64 59.712 41.792V39.312C59.712 37.488 60.88 36.368 62.912 36.368C64.512 36.368 65.552 37 65.992 38.264C66.0166 38.3115 66.0298 38.3641 66.0305 38.4176C66.0313 38.4711 66.0195 38.524 65.9962 38.5722C65.9729 38.6203 65.9387 38.6624 65.8963 38.695C65.8539 38.7276 65.8045 38.7499 65.752 38.76L65.128 38.976C64.856 39.072 64.744 39.016 64.648 38.736C64.5155 38.3943 64.2728 38.1066 63.9584 37.9182C63.644 37.7298 63.2758 37.6517 62.912 37.696C61.736 37.696 61.096 38.264 61.096 39.296V41.84C61.096 42.888 61.744 43.44 62.912 43.44C64.08 43.44 64.8 42.904 64.8 42.12V41.528H63.064C62.776 41.528 62.672 41.416 62.672 41.136V40.592C62.672 40.312 62.776 40.208 63.064 40.208H65.776Z" fill="#9097AA"/>
<path d="M69.464 39.36C69.464 37.512 70.632 36.4 72.664 36.4C74.696 36.4 75.864 37.512 75.864 39.36V41.824C75.864 43.672 74.688 44.784 72.664 44.784C70.64 44.784 69.464 43.672 69.464 41.824V39.36ZM74.512 39.36C74.512 38.32 73.864 37.76 72.704 37.76C71.544 37.76 70.888 38.328 70.888 39.36V41.84C70.888 42.888 71.536 43.44 72.704 43.44C73.872 43.44 74.512 42.864 74.512 41.84V39.36Z" fill="#9097AA"/>
<path d="M79.632 36.8C79.632 36.624 79.688 36.568 79.864 36.568H80.232C80.408 36.568 80.448 36.624 80.448 36.8V44.384C80.448 44.56 80.448 44.616 80.232 44.616H79.864C79.688 44.616 79.632 44.56 79.632 44.384V36.8Z" fill="#9097AA"/>
<path d="M87.736 36.568C88.4022 36.568 89.0412 36.8327 89.5123 37.3037C89.9834 37.7748 90.248 38.4138 90.248 39.08C90.248 39.7462 89.9834 40.3852 89.5123 40.8562C89.0412 41.3273 88.4022 41.592 87.736 41.592H85.336V44.384C85.336 44.56 85.296 44.616 85.128 44.616H84.752C84.584 44.616 84.52 44.56 84.52 44.384V36.8C84.52 36.624 84.584 36.568 84.752 36.568H87.736ZM87.664 40.8C87.893 40.8 88.1198 40.7549 88.3314 40.6672C88.543 40.5796 88.7353 40.4511 88.8972 40.2892C89.0592 40.1272 89.1876 39.935 89.2753 39.7234C89.3629 39.5118 89.408 39.285 89.408 39.056C89.408 38.827 89.3629 38.6002 89.2753 38.3886C89.1876 38.177 89.0592 37.9847 88.8972 37.8228C88.7353 37.6609 88.543 37.5324 88.3314 37.4447C88.1198 37.3571 87.893 37.312 87.664 37.312H85.264V40.8H87.664Z" fill="#9097AA"/>
<path d="M96.496 36.4081C97.1137 36.3399 97.7368 36.4728 98.273 36.787C98.8091 37.1011 99.2296 37.5799 99.472 38.1521C99.536 38.2801 99.472 38.3841 99.344 38.4481L98.992 38.6081C98.848 38.6641 98.792 38.6561 98.704 38.5041C98.5228 38.0794 98.2111 37.7234 97.8142 37.4876C97.4173 37.2517 96.9556 37.1482 96.496 37.1921C95.144 37.1921 94.408 37.7281 94.408 38.6881C94.4002 38.9815 94.4987 39.2678 94.6854 39.4942C94.8722 39.7206 95.1345 39.8719 95.424 39.9201C95.8543 40.0604 96.3004 40.1464 96.752 40.1761C97.2987 40.2052 97.838 40.3158 98.352 40.5041C98.7461 40.6288 99.0853 40.8853 99.3125 41.2305C99.5398 41.5758 99.6413 41.9888 99.6 42.4001C99.6 43.8961 98.512 44.8001 96.512 44.8001C95.856 44.8751 95.1941 44.7231 94.6366 44.3694C94.079 44.0156 93.6596 43.4815 93.448 42.8561C93.4339 42.8275 93.4263 42.7963 93.4256 42.7645C93.425 42.7326 93.4314 42.7011 93.4444 42.672C93.4574 42.643 93.4767 42.6172 93.5008 42.5964C93.5249 42.5757 93.5533 42.5605 93.584 42.5521L93.936 42.4241C93.9637 42.4127 93.9935 42.4073 94.0235 42.4081C94.0534 42.4089 94.0828 42.4159 94.1099 42.4287C94.137 42.4415 94.1611 42.4598 94.1808 42.4824C94.2004 42.505 94.2151 42.5315 94.224 42.5601C94.403 43.012 94.7212 43.3952 95.1326 43.6541C95.544 43.913 96.0271 44.0342 96.512 44.0001C98.024 44.0001 98.768 43.4721 98.768 42.4001C98.7821 42.1183 98.6958 41.8406 98.5244 41.6165C98.353 41.3924 98.1076 41.2363 97.832 41.1761C97.4181 41.0526 96.9912 40.9774 96.56 40.9521L95.696 40.8401C95.4256 40.7827 95.1586 40.7106 94.896 40.6241C94.6367 40.5457 94.3949 40.4181 94.184 40.2481C93.9718 40.0559 93.8045 39.8194 93.6939 39.5553C93.5833 39.2913 93.5321 39.0061 93.544 38.7201C93.6 37.3201 94.648 36.4081 96.496 36.4081Z" fill="#9097AA"/>
<path d="M103.912 41.88C103.946 42.4457 104.195 42.9772 104.607 43.3657C105.02 43.7543 105.565 43.9707 106.132 43.9707C106.699 43.9707 107.244 43.7543 107.657 43.3657C108.069 42.9772 108.318 42.4457 108.352 41.88V36.8C108.352 36.624 108.408 36.568 108.584 36.568H108.952C109.128 36.568 109.184 36.624 109.184 36.8V41.872C109.184 43.688 108.112 44.784 106.136 44.784C104.16 44.784 103.088 43.688 103.088 41.872V36.8C103.088 36.624 103.144 36.568 103.312 36.568H103.688C103.856 36.568 103.912 36.624 103.912 36.8V41.88Z" fill="#9097AA"/>
<path d="M120.224 36.568C120.4 36.568 120.456 36.624 120.456 36.8V44.384C120.456 44.56 120.4 44.616 120.224 44.616H119.888C119.72 44.616 119.664 44.56 119.664 44.384V39.768C119.664 39.0964 119.709 38.4255 119.8 37.76H119.752C119.502 38.3686 119.211 38.9593 118.88 39.528L117.16 42.56C117.139 42.6126 117.102 42.6576 117.055 42.689C117.008 42.7205 116.953 42.7368 116.896 42.736H116.672C116.614 42.7363 116.558 42.7198 116.51 42.6885C116.461 42.6573 116.423 42.6126 116.4 42.56L114.656 39.496C114.346 38.9354 114.079 38.3525 113.856 37.752H113.808C113.89 38.4236 113.933 39.0995 113.936 39.776V44.384C113.936 44.56 113.88 44.616 113.704 44.616H113.392C113.216 44.616 113.16 44.56 113.16 44.384V36.8C113.16 36.624 113.216 36.568 113.392 36.568H113.68C113.746 36.5619 113.812 36.5763 113.869 36.6092C113.926 36.6422 113.972 36.6921 114 36.752L116.8 41.728L119.584 36.8C119.672 36.632 119.72 36.608 119.896 36.608L120.224 36.568Z" fill="#9097AA"/>
<path d="M28.752 42.84V48.624C28.752 48.8458 28.6639 49.0584 28.5071 49.2152C28.3504 49.372 28.1377 49.46 27.916 49.46C27.6943 49.46 27.4816 49.372 27.3249 49.2152C27.1681 49.0584 27.08 48.8458 27.08 48.624V42.848C27.3128 43.018 27.5919 43.1129 27.88 43.12C28.1941 43.129 28.5018 43.0302 28.752 42.84ZM35.872 41.168C35.6598 41.168 35.4563 41.2523 35.3063 41.4023C35.1563 41.5524 35.072 41.7559 35.072 41.968V42.976C35.072 43.1978 35.1601 43.4104 35.3169 43.5672C35.4736 43.724 35.6863 43.812 35.908 43.812C36.1297 43.812 36.3424 43.724 36.4991 43.5672C36.6559 43.4104 36.744 43.1978 36.744 42.976V42.008C36.7502 41.8933 36.7317 41.7786 36.6896 41.6717C36.6475 41.5648 36.5829 41.4682 36.5002 41.3885C36.4175 41.3088 36.3185 41.2479 36.2101 41.2098C36.1017 41.1718 35.9864 41.1575 35.872 41.168ZM25.264 45.032C24.9761 45.0234 24.6975 44.9287 24.464 44.76V50.56C24.464 50.7828 24.5525 50.9965 24.71 51.154C24.8676 51.3115 25.0812 51.4 25.304 51.4C25.5268 51.4 25.7404 51.3115 25.898 51.154C26.0555 50.9965 26.144 50.7828 26.144 50.56V44.8C25.8828 44.9689 25.5745 45.0502 25.264 45.032ZM33.264 39.432C33.1556 39.4266 33.0473 39.4433 32.9456 39.4811C32.8438 39.5188 32.7509 39.5769 32.6723 39.6517C32.5937 39.7266 32.5312 39.8166 32.4885 39.9164C32.4458 40.0161 32.4239 40.1235 32.424 40.232V44.688C32.424 44.9108 32.5125 45.1245 32.67 45.282C32.8276 45.4395 33.0412 45.528 33.264 45.528C33.4868 45.528 33.7004 45.4395 33.858 45.282C34.0155 45.1245 34.104 44.9108 34.104 44.688V40.288C34.1104 40.1726 34.0917 40.0571 34.0491 39.9496C34.0066 39.8421 33.9412 39.7451 33.8576 39.6652C33.774 39.5854 33.674 39.5246 33.5646 39.4871C33.4552 39.4496 33.339 39.4363 33.224 39.448L33.264 39.432ZM30.608 41.144C30.3067 41.142 30.0133 41.047 29.768 40.872V46.688C29.768 46.9108 29.8565 47.1245 30.014 47.282C30.1716 47.4395 30.3852 47.528 30.608 47.528C30.8308 47.528 31.0444 47.4395 31.202 47.282C31.3595 47.1245 31.448 46.9108 31.448 46.688V40.88C31.1942 41.0691 30.8844 41.1677 30.568 41.16L30.608 41.144ZM23.448 45.6V29.352C23.4459 29.154 23.3657 28.9648 23.2249 28.8255C23.0841 28.6862 22.8941 28.608 22.696 28.608H22.52C22.3219 28.608 22.1319 28.6862 21.9911 28.8255C21.8503 28.9648 21.7701 29.154 21.768 29.352V45.6C21.768 45.7995 21.8472 45.9908 21.9883 46.1318C22.1293 46.2728 22.3206 46.352 22.52 46.352H22.696C22.8954 46.352 23.0867 46.2728 23.2278 46.1318C23.3688 45.9908 23.448 45.7995 23.448 45.6ZM25.352 44.416H25.176C24.9766 44.416 24.7853 44.3368 24.6443 44.1958C24.5032 44.0548 24.424 43.8635 24.424 43.664V31.288C24.4261 31.09 24.5063 30.9008 24.6471 30.7615C24.7879 30.6222 24.9779 30.544 25.176 30.544H25.352C25.5501 30.544 25.7401 30.6222 25.8809 30.7615C26.0217 30.9008 26.1019 31.09 26.104 31.288V43.68C26.104 43.8795 26.0248 44.0708 25.8837 44.2118C25.7427 44.3528 25.5514 44.432 25.352 44.432V44.416ZM28 42.512H27.816C27.6187 42.512 27.4294 42.4337 27.2899 42.2941C27.1504 42.1546 27.072 41.9654 27.072 41.768V33.208C27.0709 33.1097 27.0894 33.0121 27.1263 32.9209C27.1632 32.8297 27.2179 32.7467 27.2871 32.6768C27.3563 32.6068 27.4386 32.5513 27.5294 32.5134C27.6202 32.4755 27.7176 32.456 27.816 32.456H28C28.1981 32.4581 28.3873 32.5383 28.5266 32.6791C28.6659 32.8199 28.744 33.01 28.744 33.208V41.768C28.744 41.9654 28.6656 42.1546 28.5261 42.2941C28.3866 42.4337 28.1973 42.512 28 42.512ZM30.648 40.552H30.48C30.2819 40.552 30.0919 40.4739 29.9511 40.3346C29.8103 40.1953 29.7301 40.0061 29.728 39.808V35.2C29.7214 35.0973 29.736 34.9943 29.7709 34.8975C29.8057 34.8006 29.8601 34.712 29.9305 34.637C30.001 34.562 30.0862 34.5023 30.1807 34.4615C30.2752 34.4207 30.3771 34.3998 30.48 34.4H30.656C30.8554 34.4 31.0467 34.4793 31.1878 34.6203C31.3288 34.7613 31.408 34.9526 31.408 35.152V39.792C31.4091 39.8915 31.3904 39.9901 31.3531 40.0823C31.3158 40.1744 31.2605 40.2583 31.1906 40.329C31.1207 40.3996 31.0374 40.4557 30.9456 40.494C30.8539 40.5323 30.7554 40.552 30.656 40.552H30.648ZM33.304 38.832H33.128C32.9286 38.832 32.7373 38.7528 32.5963 38.6118C32.4552 38.4708 32.376 38.2795 32.376 38.08V36.888C32.3781 36.69 32.4583 36.5008 32.5991 36.3615C32.7399 36.2222 32.9299 36.144 33.128 36.144H33.304C33.5021 36.144 33.6921 36.2222 33.8329 36.3615C33.9737 36.5008 34.0539 36.69 34.056 36.888V38.08C34.056 38.2781 33.9779 38.4682 33.8386 38.609C33.6993 38.7498 33.5101 38.8299 33.312 38.832H33.304Z" fill="#9097AA"/>
</svg>
